<svg width="512" height="512" viewBox="0 0 512 512" fill="none" xmlns="http://www.w3.org/2000/svg">
<g clip-path="url(#clip0_469_2)">
<path d="M227.56 512H433.78C437.551 512 441.168 510.502 443.835 507.835C446.502 505.168 448 501.551 448 497.78V456.2C447.992 439.363 450.958 422.656 456.76 406.85L461.29 394.5C466.606 379.965 469.314 364.606 469.29 349.13V292.78C469.29 270.34 452.37 251.15 430.77 249.09C423.108 248.38 415.395 249.73 408.43 253C402.18 239.28 389.22 229.22 373.92 227.76C367.08 227.122 360.186 228.123 353.81 230.68C349 213.89 334.53 201 317 199.31C310.785 198.726 304.518 199.498 298.63 201.57V143.44C298.63 121 281.71 101.81 260.11 99.7501C254.186 99.1741 248.206 99.8437 242.556 101.716C236.906 103.588 231.71 106.621 227.302 110.621C222.893 114.62 219.37 119.498 216.959 124.94C214.548 130.382 213.301 136.268 213.3 142.22V278.22C192.3 280.88 177.3 289.78 168.85 304.78C145.48 346.07 185.85 415.66 190.55 423.46C190.743 423.78 190.947 424.093 191.16 424.4C208.32 448.46 213.3 458.14 213.3 475.98V497.82C213.305 499.687 213.678 501.536 214.398 503.259C215.117 504.982 216.169 506.547 217.493 507.863C218.817 509.18 220.388 510.223 222.115 510.933C223.843 511.643 225.693 512.005 227.56 512ZM193.64 318.74C197.05 312.74 203.64 308.74 213.33 306.96V319.96C213.33 323.731 214.828 327.348 217.495 330.015C220.162 332.682 223.779 334.18 227.55 334.18C231.321 334.18 234.938 332.682 237.605 330.015C240.272 327.348 241.77 323.731 241.77 319.96V142.22C241.771 140.231 242.189 138.263 242.998 136.445C243.806 134.627 244.987 132.999 246.463 131.666C247.94 130.332 249.68 129.323 251.57 128.704C253.461 128.085 255.461 127.869 257.44 128.07C264.61 128.75 270.22 135.51 270.22 143.45V256C270.22 259.771 271.718 263.388 274.385 266.055C277.052 268.722 280.669 270.22 284.44 270.22C288.211 270.22 291.828 268.722 294.495 266.055C297.162 263.388 298.66 259.771 298.66 256V241.78C298.661 239.791 299.079 237.823 299.888 236.005C300.696 234.187 301.877 232.559 303.353 231.226C304.83 229.892 306.57 228.883 308.46 228.264C310.351 227.645 312.351 227.429 314.33 227.63C321.5 228.31 327.11 235.07 327.11 243.01V284.45C327.11 288.221 328.608 291.838 331.275 294.505C333.942 297.172 337.559 298.67 341.33 298.67C345.101 298.67 348.718 297.172 351.385 294.505C354.052 291.838 355.55 288.221 355.55 284.45V270.22C355.551 268.231 355.969 266.263 356.778 264.445C357.586 262.627 358.767 260.999 360.243 259.666C361.72 258.332 363.46 257.323 365.35 256.704C367.241 256.085 369.241 255.869 371.22 256.07C378.39 256.75 384 263.51 384 271.45V305.78C384 309.551 385.498 313.168 388.165 315.835C390.832 318.502 394.449 320 398.22 320C401.991 320 405.608 318.502 408.275 315.835C410.942 313.168 412.44 309.551 412.44 305.78V291.56C412.441 289.571 412.859 287.603 413.668 285.785C414.476 283.967 415.657 282.339 417.133 281.006C418.61 279.672 420.35 278.663 422.24 278.044C424.131 277.425 426.131 277.209 428.11 277.41C435.28 278.09 440.89 284.85 440.89 292.79V349.14C440.896 361.279 438.76 373.324 434.58 384.72L430 397.06C423.049 416.002 419.498 436.023 419.51 456.2V483.55H241.78V475.93C241.78 449.39 233.1 434.17 214.69 408.32C200.36 384.19 182.18 339 193.64 318.74Z" fill="white"/>
<path d="M9.50012 48.9999C9.37012 49.1899 9.26012 49.3899 9.14012 49.5899C9.02012 49.7899 8.89012 49.9899 8.78012 50.1999C8.67012 50.4099 8.58012 50.6199 8.48012 50.8299C8.38012 51.0399 8.28012 51.2499 8.19012 51.4599C8.10012 51.6699 8.04012 51.8799 7.96012 52.0899C7.88012 52.2999 7.79012 52.5399 7.72012 52.7799C7.65012 53.0199 7.61012 53.2099 7.56012 53.4199C7.51012 53.6299 7.43012 53.8899 7.39012 54.1299C7.35012 54.3699 7.31012 54.6299 7.28012 54.8699C7.25012 55.1099 7.21012 55.2899 7.19012 55.4999C7.14345 55.9599 7.12012 56.4199 7.12012 56.8799C7.12012 57.3399 7.14345 57.7999 7.19012 58.2599C7.19012 58.4699 7.25012 58.6799 7.28012 58.8899C7.31012 59.0999 7.34012 59.3899 7.39012 59.6299C7.44012 59.8699 7.50012 60.0999 7.56012 60.3399C7.62012 60.5799 7.66012 60.7699 7.72012 60.9799C7.78012 61.1899 7.88012 61.4399 7.96012 61.6699C8.04012 61.8999 8.10012 62.0899 8.19012 62.2999C8.28012 62.5099 8.38012 62.7199 8.48012 62.9299C8.58012 63.1399 8.67012 63.3499 8.78012 63.5599C8.89012 63.7699 9.02012 63.9599 9.14012 64.1599C9.26012 64.3599 9.37012 64.5599 9.50012 64.7499C9.63012 64.9399 9.83012 65.2099 10.0001 65.4299C10.1701 65.6499 10.2101 65.7199 10.3201 65.8599C10.635 66.2334 10.9687 66.5906 11.3201 66.9299L53.9701 109.58C55.2627 111.009 56.8324 112.161 58.5838 112.965C60.3353 113.769 62.2319 114.209 64.1585 114.258C66.0851 114.307 68.0015 113.963 69.7913 113.248C71.581 112.534 73.2068 111.462 74.5699 110.1C75.933 108.738 77.0049 107.112 77.7206 105.323C78.4363 103.533 78.7807 101.617 78.733 99.6906C78.6853 97.764 78.2465 95.8671 77.4432 94.1153C76.6399 92.3635 75.4889 90.7932 74.0601 89.4999L55.6701 71.1099H135.11C138.881 71.1099 142.498 69.6117 145.165 66.945C147.832 64.2782 149.33 60.6613 149.33 56.8899C149.33 53.1185 147.832 49.5016 145.165 46.8349C142.498 44.1681 138.881 42.6699 135.11 42.6699H55.6701L74.0601 24.2799C76.7269 21.6118 78.2245 17.9937 78.2236 14.2214C78.2226 10.4491 76.7232 6.83167 74.0551 4.16492C71.387 1.49817 67.7689 0.000527642 63.9966 0.00146528C60.2243 0.00240293 56.6069 1.50184 53.9401 4.16992L11.3001 46.8199C10.9488 47.1593 10.615 47.5164 10.3001 47.8899C10.1901 48.0299 10.0901 48.1799 9.98012 48.3199C9.87012 48.4599 9.66012 48.7599 9.50012 48.9999Z" fill="#078EFB"/>
<path d="M502.5 64.7798C502.63 64.5898 502.74 64.3898 502.86 64.1898C502.98 63.9898 503.11 63.7898 503.22 63.5898C503.33 63.3898 503.42 63.1698 503.52 62.9598C503.62 62.7498 503.72 62.5398 503.81 62.3298C503.9 62.1198 503.96 61.9098 504.04 61.6998C504.12 61.4898 504.21 61.2498 504.28 61.0098C504.35 60.7698 504.39 60.5798 504.44 60.3698C504.49 60.1598 504.57 59.8998 504.61 59.6598C504.65 59.4198 504.69 59.1698 504.72 58.9198C504.75 58.6698 504.79 58.4998 504.81 58.2898C504.902 57.3554 504.902 56.4142 504.81 55.4798C504.81 55.2698 504.75 55.0598 504.72 54.8498C504.69 54.6398 504.66 54.3498 504.61 54.1098C504.56 53.8698 504.5 53.6398 504.44 53.3998C504.38 53.1598 504.34 52.9698 504.28 52.7598C504.22 52.5498 504.12 52.2998 504.04 52.0698C503.96 51.8398 503.9 51.6498 503.81 51.4398C503.72 51.2298 503.62 51.0198 503.52 50.8098C503.42 50.5998 503.33 50.3898 503.22 50.1798C503.11 49.9698 502.98 49.7798 502.86 49.5698C502.74 49.3598 502.63 49.1798 502.5 48.9798C502.37 48.7798 502.17 48.5198 501.99 48.2898C501.81 48.0598 501.78 47.9998 501.67 47.8598C501.355 47.4863 501.021 47.1292 500.67 46.7898L458.06 4.16978C455.39 1.51804 451.778 0.0326691 448.015 0.0390832C444.252 0.0454973 440.645 1.54318 437.984 4.204C435.323 6.86483 433.826 10.4718 433.819 14.2348C433.813 17.9978 435.298 21.6099 437.95 24.2798L456.34 42.6698H376.89C373.119 42.6698 369.502 44.168 366.835 46.8347C364.168 49.5015 362.67 53.1184 362.67 56.8898C362.67 60.6612 364.168 64.2781 366.835 66.9448C369.502 69.6116 373.119 71.1098 376.89 71.1098H456.33L437.94 89.4998C436.612 90.8186 435.558 92.3865 434.837 94.1137C434.116 95.8409 433.744 97.6934 433.741 99.5648C433.737 101.436 434.104 103.29 434.818 105.02C435.533 106.749 436.582 108.321 437.906 109.644C439.229 110.967 440.8 112.017 442.53 112.731C444.26 113.446 446.113 113.812 447.985 113.809C449.856 113.806 451.709 113.433 453.436 112.713C455.163 111.992 456.731 110.938 458.05 109.61L500.7 66.9998C501.051 66.6604 501.385 66.3033 501.7 65.9298C501.81 65.7898 501.91 65.6398 502.02 65.4998C502.13 65.3598 502.34 64.9998 502.5 64.7798Z" fill="#078EFB"/>
<path d="M156.44 142.22C156.44 145.991 157.938 149.608 160.605 152.275C163.272 154.942 166.888 156.44 170.66 156.44C174.431 156.44 178.048 154.942 180.715 152.275C183.382 149.608 184.88 145.991 184.88 142.22C184.88 123.36 192.372 105.273 205.707 91.9375C219.043 78.6018 237.13 71.1099 255.99 71.1099C274.849 71.1099 292.936 78.6018 306.272 91.9375C319.608 105.273 327.1 123.36 327.1 142.22C327.1 145.991 328.598 149.608 331.265 152.275C333.932 154.942 337.548 156.44 341.32 156.44C345.091 156.44 348.708 154.942 351.375 152.275C354.042 149.608 355.54 145.991 355.54 142.22C355.672 129.062 353.194 116.009 348.25 103.815C343.306 91.6203 335.994 80.5271 326.736 71.1762C317.479 61.8253 306.459 54.4023 294.315 49.3364C282.171 44.2705 269.143 41.6621 255.985 41.6621C242.826 41.6621 229.799 44.2705 217.655 49.3364C205.51 54.4023 194.491 61.8253 185.233 71.1762C175.976 80.5271 168.664 91.6203 163.72 103.815C158.776 116.009 156.298 129.062 156.43 142.22H156.44Z" fill="#078EFB"/>
</g>
<defs>
<clipPath id="clip0_469_2">
<rect width="512" height="512" fill="white"/>
</clipPath>
</defs>
</svg>
